<?xml version="1.0" encoding="UTF-8" standalone="no"?>
<!-- Created with Inkscape (http://www.inkscape.org/) -->

<svg
   version="1.1"
   id="svg9"
   xml:space="preserve"
   width="993.48303"
   height="214.91393"
   viewBox="0 0 993.48301 214.91392"
   xmlns="http://www.w3.org/2000/svg"
   xmlns:svg="http://www.w3.org/2000/svg"><defs
     id="defs13"><clipPath
       clipPathUnits="userSpaceOnUse"
       id="clipPath23"><path
         d="M 0,2000 H 2000 V 0 H 0 Z"
         id="path21" /></clipPath></defs><g
     id="g15"
     transform="matrix(1.3333333,0,0,-1.3333333,-837.33331,1140.9727)"><g
       id="g17"><g
         id="g19"
         clip-path="url(#clipPath23)"><g
           id="g101"
           transform="translate(873.3779,783.8203)"
           style="fill:#ececec"><path
             d="m 0,0 c 4.752,6.482 7.129,14.961 7.129,25.434 0,6.524 -1.008,12.423 -3.021,17.701 -2.014,5.274 -5.176,9.503 -9.484,12.686 -4.311,3.181 -9.727,4.773 -16.251,4.773 H -47.243 V -9.728 h 25.616 C -11.961,-9.728 -4.754,-6.486 0,0 m -0.906,61.982 c 5.275,-3.826 9.222,-8.94 11.841,-15.344 2.616,-6.404 3.927,-13.472 3.927,-21.204 0,-7.976 -1.311,-15.145 -3.927,-21.508 -2.619,-6.364 -6.566,-11.418 -11.841,-15.163 -5.277,-3.746 -11.781,-5.619 -19.513,-5.619 H -51.23 c -1.048,0 -1.914,0.342 -2.598,1.027 -0.685,0.683 -1.026,1.55 -1.026,2.598 v 77.328 c 0,1.047 0.341,1.913 1.026,2.598 0.684,0.684 1.55,1.027 2.598,1.027 h 30.811 c 7.732,0 14.236,-1.914 19.513,-5.74"
             style="fill:#ececec;fill-opacity:1;fill-rule:nonzero;stroke:none"
             id="path103" /></g><g
           id="g105"
           transform="translate(962.7905,846.1055)"><path
             d="m 0,0 -26.944,-37.094 v -38.423 c 0,-1.047 -0.363,-1.914 -1.088,-2.597 -0.725,-0.685 -1.612,-1.028 -2.658,-1.028 -1.048,0 -1.914,0.343 -2.598,1.028 -0.685,0.683 -1.026,1.55 -1.026,2.597 v 38.302 L -61.38,-0.241 c -0.645,0.724 -0.966,1.57 -0.966,2.537 0,0.967 0.402,1.811 1.208,2.537 0.804,0.725 1.691,1.088 2.658,1.088 1.288,0 2.296,-0.566 3.021,-1.692 l 25.011,-34.073 24.406,34.073 c 0.886,1.126 1.934,1.692 3.142,1.692 0.967,0 1.813,-0.384 2.537,-1.149 C 0.362,4.006 0.725,3.181 0.725,2.296 0.725,1.731 0.483,0.967 0,0"
             style="fill:#ececec;fill-opacity:1;fill-rule:nonzero;stroke:none"
             id="path107" /></g><g
           id="g109"
           transform="translate(1048.6357,850.5752)"
           style="fill:#ececec"><path
             d="m 0,0 c 0.604,-0.645 0.906,-1.449 0.906,-2.415 v -77.329 c 0,-1.209 -0.362,-2.156 -1.088,-2.84 -0.724,-0.685 -1.611,-1.027 -2.657,-1.027 -0.564,0 -1.108,0.121 -1.632,0.362 -0.524,0.242 -0.947,0.524 -1.268,0.847 l -51.834,69.837 v -67.784 c 0,-0.886 -0.344,-1.652 -1.028,-2.295 -0.685,-0.646 -1.47,-0.967 -2.356,-0.967 -0.966,0 -1.772,0.321 -2.416,0.967 -0.646,0.643 -0.966,1.409 -0.966,2.295 v 77.691 c 0,1.128 0.341,2.013 1.026,2.658 0.684,0.645 1.511,0.967 2.478,0.967 1.287,0 2.253,-0.443 2.899,-1.329 l 52.077,-70.2 v 68.147 c 0,0.966 0.32,1.77 0.965,2.415 0.645,0.645 1.451,0.967 2.417,0.967 C -1.431,0.967 -0.604,0.645 0,0"
             style="fill:#ececec;fill-opacity:1;fill-rule:nonzero;stroke:none"
             id="path111" /></g><g
           id="g113"
           transform="translate(1090.1396,798.5)"
           style="fill:#ececec"><path
             d="M 0,0 H 33.59 L 16.674,41.322 Z m 52.68,-28.152 c 0,-1.048 -0.363,-1.894 -1.087,-2.537 -0.726,-0.646 -1.572,-0.967 -2.537,-0.967 -0.807,0 -1.511,0.22 -2.116,0.664 -0.604,0.442 -1.068,1.027 -1.389,1.752 L 36.489,-7.129 H -2.779 l -8.942,-22.111 c -0.645,-1.613 -1.732,-2.416 -3.261,-2.416 -1.129,0 -1.976,0.281 -2.538,0.845 -0.564,0.563 -0.887,1.33 -0.966,2.295 v 0.364 c 0,0.483 0.039,0.845 0.121,1.087 l 31.897,78.054 c 0.644,1.611 1.852,2.416 3.625,2.416 0.804,0 1.51,-0.222 2.114,-0.664 0.605,-0.444 1.067,-1.028 1.39,-1.752 l 31.777,-77.691 c 0.161,-0.647 0.242,-1.129 0.242,-1.45"
             style="fill:#ececec;fill-opacity:1;fill-rule:nonzero;stroke:none"
             id="path115" /></g><g
           id="g117"
           transform="translate(1241.1094,850.5156)"
           style="fill:#ececec"><path
             d="m 0,0 c 0.685,-0.686 1.028,-1.552 1.028,-2.599 v -77.328 c 0,-1.048 -0.362,-1.914 -1.088,-2.597 -0.725,-0.685 -1.612,-1.028 -2.658,-1.028 -1.129,0 -2.054,0.343 -2.779,1.028 -0.725,0.683 -1.087,1.549 -1.087,2.597 v 66.454 l -28.395,-43.013 c -0.806,-1.048 -1.733,-1.531 -2.779,-1.45 h -0.241 c -0.967,0 -1.855,0.483 -2.658,1.45 l -28.394,43.256 v -66.697 c 0,-1.048 -0.345,-1.914 -1.027,-2.597 -0.686,-0.685 -1.552,-1.028 -2.598,-1.028 -1.048,0 -1.893,0.343 -2.538,1.028 -0.645,0.683 -0.966,1.549 -0.966,2.597 v 77.328 c 0,0.967 0.342,1.814 1.027,2.538 0.683,0.725 1.549,1.087 2.597,1.087 0.563,0 1.167,-0.141 1.813,-0.422 0.644,-0.283 1.127,-0.665 1.45,-1.148 l 31.656,-47.484 31.899,47.484 c 0.884,1.208 1.972,1.731 3.261,1.57 C -1.51,1.026 -0.685,0.684 0,0"
             style="fill:#ececec;fill-opacity:1;fill-rule:nonzero;stroke:none"
             id="path119" /></g><g
           id="g121"
           transform="translate(1278.5049,768.0518)"
           style="fill:#ececec"><path
             d="m 0,0 c -0.726,-0.726 -1.611,-1.088 -2.658,-1.088 -1.129,0 -2.034,0.343 -2.718,1.027 -0.686,0.684 -1.027,1.59 -1.027,2.719 v 77.087 c 0,1.127 0.362,2.033 1.087,2.719 0.725,0.683 1.65,1.026 2.779,1.026 1.046,0 1.933,-0.362 2.658,-1.087 0.726,-0.724 1.087,-1.612 1.087,-2.658 V 2.658 C 1.128,1.61 0.726,0.725 0,0"
             style="fill:#ececec;fill-opacity:1;fill-rule:nonzero;stroke:none"
             id="path123" /></g><g
           id="g125"
           transform="translate(1373.1123,842.2393)"
           style="fill:#ececec"><path
             d="m 0,0 c 0,-0.726 -0.283,-1.531 -0.846,-2.417 -0.725,-0.888 -1.652,-1.329 -2.779,-1.329 -0.646,0 -1.289,0.2 -1.934,0.604 -6.444,4.269 -13.492,6.405 -21.143,6.405 -6.526,0 -12.427,-1.533 -17.702,-4.592 -5.276,-3.063 -9.424,-7.352 -12.445,-12.868 -3.021,-5.519 -4.531,-11.781 -4.531,-18.788 0,-7.171 1.529,-13.515 4.592,-19.032 3.06,-5.517 7.228,-9.786 12.506,-12.806 5.273,-3.022 11.134,-4.531 17.58,-4.531 7.651,0 14.659,2.093 21.023,6.282 0.644,0.403 1.329,0.605 2.054,0.605 1.127,0 2.054,-0.483 2.779,-1.45 0.563,-0.646 0.846,-1.41 0.846,-2.296 0,-1.289 -0.565,-2.256 -1.691,-2.899 -3.142,-2.096 -7.009,-3.848 -11.6,-5.257 -4.591,-1.408 -9.063,-2.114 -13.411,-2.114 -7.654,0 -14.723,1.832 -21.205,5.498 -6.487,3.664 -11.642,8.799 -15.466,15.405 -3.827,6.603 -5.739,14.137 -5.739,22.595 0,8.134 1.891,15.525 5.678,22.171 3.786,6.645 8.9,11.84 15.345,15.586 6.443,3.746 13.572,5.619 21.387,5.619 4.51,0 8.92,-0.646 13.229,-1.933 C -9.164,7.168 -5.277,5.355 -1.812,3.021 -0.604,2.296 0,1.287 0,0"
             style="fill:#ececec;fill-opacity:1;fill-rule:nonzero;stroke:none"
             id="path127" /></g><g
           id="g129"
           transform="translate(855.6016,726.2529)"
           style="fill:#ececec"><path
             d="m 0,0 c 1.444,-1.753 2.167,-4.026 2.167,-6.819 v -14.174 c 0,-0.261 -0.089,-0.487 -0.267,-0.682 -0.179,-0.195 -0.414,-0.293 -0.707,-0.293 -0.292,0 -0.527,0.098 -0.706,0.293 -0.179,0.195 -0.268,0.421 -0.268,0.682 v 13.979 c 0,2.305 -0.56,4.18 -1.68,5.626 -1.121,1.445 -2.818,2.167 -5.09,2.167 -1.397,0 -2.769,-0.357 -4.116,-1.071 -1.348,-0.715 -2.444,-1.664 -3.288,-2.85 -0.845,-1.185 -1.266,-2.476 -1.266,-3.872 v -13.979 c 0,-0.261 -0.09,-0.487 -0.268,-0.682 -0.179,-0.195 -0.414,-0.293 -0.706,-0.293 -0.292,0 -0.529,0.098 -0.706,0.293 -0.18,0.195 -0.268,0.421 -0.268,0.682 v 14.222 c 0,2.242 -0.537,4.06 -1.608,5.456 -1.072,1.396 -2.696,2.094 -4.871,2.094 -1.364,0 -2.695,-0.341 -3.994,-1.022 -1.299,-0.682 -2.362,-1.608 -3.19,-2.777 -0.828,-1.168 -1.243,-2.419 -1.243,-3.751 v -14.222 c 0,-0.261 -0.097,-0.487 -0.292,-0.682 -0.195,-0.195 -0.422,-0.293 -0.681,-0.293 -0.293,0 -0.529,0.098 -0.707,0.293 -0.179,0.195 -0.267,0.421 -0.267,0.682 V 1.364 c 0,0.259 0.097,0.487 0.292,0.682 0.194,0.194 0.421,0.292 0.682,0.292 0.292,0 0.527,-0.098 0.706,-0.292 0.178,-0.195 0.267,-0.423 0.267,-0.682 v -3.409 c 0.942,1.363 2.168,2.483 3.678,3.36 1.51,0.877 3.093,1.316 4.749,1.316 1.786,0 3.377,-0.456 4.773,-1.364 1.396,-0.91 2.419,-2.241 3.069,-3.995 0.682,1.494 1.973,2.759 3.872,3.799 1.9,1.039 3.759,1.56 5.578,1.56 C -3.564,2.631 -1.445,1.753 0,0"
             style="fill:#ececec;fill-opacity:1;fill-rule:nonzero;stroke:none"
             id="path131" /></g><g
           id="g133"
           transform="translate(910.5928,726.4727)"
           style="fill:#ececec"><path
             d="m 0,0 c -1.25,-0.634 -2.355,-1.575 -3.312,-2.825 -0.959,-1.251 -1.6,-2.769 -1.924,-4.555 h 17.924 v 0.439 c -0.163,1.656 -0.69,3.076 -1.583,4.261 C 10.212,-1.494 9.108,-0.593 7.793,0.023 6.478,0.64 5.106,0.949 3.677,0.949 2.476,0.949 1.25,0.633 0,0 m 14.199,-16.609 c 0.161,-0.18 0.243,-0.383 0.243,-0.61 0,-0.227 -0.066,-0.423 -0.195,-0.585 -1.071,-1.428 -2.404,-2.597 -3.994,-3.507 -1.591,-0.908 -3.296,-1.363 -5.114,-1.363 -2.436,0 -4.596,0.519 -6.478,1.558 -1.884,1.04 -3.354,2.516 -4.409,4.433 -1.055,1.915 -1.583,4.14 -1.583,6.673 0,2.598 0.512,4.878 1.535,6.844 1.023,1.964 2.378,3.466 4.067,4.505 1.688,1.039 3.49,1.558 5.406,1.558 1.916,0 3.694,-0.414 5.334,-1.241 1.639,-0.828 2.979,-2.071 4.019,-3.726 1.038,-1.657 1.59,-3.702 1.656,-6.138 0,-0.26 -0.098,-0.495 -0.292,-0.706 C 14.199,-9.125 13.971,-9.23 13.711,-9.23 H -5.431 v -0.634 c 0,-2.014 0.406,-3.857 1.218,-5.529 0.811,-1.671 2.013,-2.995 3.604,-3.969 1.591,-0.974 3.507,-1.461 5.748,-1.461 1.558,0 3.028,0.381 4.408,1.144 1.38,0.763 2.46,1.729 3.239,2.899 0.227,0.292 0.503,0.438 0.828,0.438 0.227,0 0.421,-0.091 0.585,-0.267"
             style="fill:#ececec;fill-opacity:1;fill-rule:nonzero;stroke:none"
             id="path135" /></g><g
           id="g137"
           transform="translate(969.0659,709.1084)"
           style="fill:#ececec"><path
             d="m 0,0 c 0,0.227 0.129,0.437 0.39,0.632 0.162,0.163 0.357,0.244 0.585,0.244 0.323,0 0.584,-0.13 0.779,-0.39 1.883,-2.695 4.513,-4.042 7.891,-4.042 1.72,0 3.23,0.43 4.529,1.29 1.299,0.86 1.949,2.022 1.949,3.483 0,1.493 -0.569,2.613 -1.705,3.361 -1.137,0.746 -2.696,1.363 -4.676,1.851 -2.63,0.649 -4.7,1.517 -6.21,2.606 -1.511,1.088 -2.265,2.621 -2.265,4.603 0,1.916 0.762,3.499 2.289,4.749 1.526,1.25 3.49,1.875 5.894,1.875 1.331,0 2.654,-0.26 3.969,-0.78 1.315,-0.519 2.509,-1.347 3.58,-2.483 0.227,-0.195 0.341,-0.423 0.341,-0.683 0,-0.292 -0.114,-0.552 -0.341,-0.779 -0.26,-0.13 -0.471,-0.194 -0.633,-0.194 -0.227,0 -0.422,0.096 -0.584,0.292 -1.689,1.85 -3.865,2.776 -6.528,2.776 -1.721,0 -3.173,-0.423 -4.358,-1.266 C 3.709,16.3 3.118,15.131 3.118,13.638 3.215,12.241 3.856,11.161 5.042,10.398 6.227,9.635 7.972,8.962 10.277,8.377 11.934,7.954 13.305,7.492 14.394,6.989 15.481,6.485 16.35,5.778 16.999,4.87 c 0.649,-0.91 0.975,-2.095 0.975,-3.556 0,-2.045 -0.788,-3.661 -2.363,-4.846 C 14.036,-4.718 11.982,-5.31 9.45,-5.31 5.748,-5.31 2.711,-3.849 0.341,-0.926 0.114,-0.569 0,-0.261 0,0"
             style="fill:#ececec;fill-opacity:1;fill-rule:nonzero;stroke:none"
             id="path139" /></g><g
           id="g141"
           transform="translate(1030.8281,709.1084)"
           style="fill:#ececec"><path
             d="m 0,0 c 0,0.227 0.129,0.437 0.39,0.632 0.162,0.163 0.357,0.244 0.585,0.244 0.323,0 0.584,-0.13 0.779,-0.39 1.882,-2.695 4.513,-4.042 7.891,-4.042 1.72,0 3.23,0.43 4.529,1.29 1.299,0.86 1.948,2.022 1.948,3.483 0,1.493 -0.568,2.613 -1.704,3.361 -1.138,0.746 -2.696,1.363 -4.677,1.851 -2.63,0.649 -4.7,1.517 -6.21,2.606 -1.51,1.088 -2.264,2.621 -2.264,4.603 0,1.916 0.762,3.499 2.289,4.749 1.526,1.25 3.49,1.875 5.893,1.875 1.331,0 2.655,-0.26 3.97,-0.78 1.315,-0.519 2.509,-1.347 3.58,-2.483 0.227,-0.195 0.341,-0.423 0.341,-0.683 0,-0.292 -0.114,-0.552 -0.341,-0.779 -0.261,-0.13 -0.471,-0.194 -0.633,-0.194 -0.227,0 -0.423,0.096 -0.585,0.292 -1.688,1.85 -3.864,2.776 -6.527,2.776 -1.721,0 -3.174,-0.423 -4.358,-1.266 C 3.709,16.3 3.117,15.131 3.117,13.638 3.215,12.241 3.855,11.161 5.041,10.398 6.227,9.635 7.972,8.962 10.277,8.377 11.934,7.954 13.305,7.492 14.394,6.989 15.48,6.485 16.35,5.778 16.999,4.87 c 0.649,-0.91 0.974,-2.095 0.974,-3.556 0,-2.045 -0.787,-3.661 -2.362,-4.846 C 14.035,-4.718 11.982,-5.31 9.449,-5.31 5.747,-5.31 2.711,-3.849 0.341,-0.926 0.113,-0.569 0,-0.261 0,0"
             style="fill:#ececec;fill-opacity:1;fill-rule:nonzero;stroke:none"
             id="path143" /></g><g
           id="g145"
           transform="translate(1109.2227,707.0859)"
           style="fill:#ececec"><path
             d="m 0,0 c 1.445,0.958 2.573,2.281 3.386,3.971 0.811,1.687 1.218,3.571 1.218,5.649 0,1.981 -0.407,3.8 -1.218,5.456 -0.813,1.655 -1.941,2.963 -3.386,3.921 -1.444,0.957 -3.061,1.437 -4.846,1.437 -1.786,0 -3.402,-0.463 -4.846,-1.389 -1.446,-0.925 -2.575,-2.208 -3.385,-3.848 -0.813,-1.639 -1.218,-3.499 -1.218,-5.577 0,-2.078 0.405,-3.962 1.218,-5.649 0.81,-1.69 1.931,-3.013 3.36,-3.971 1.429,-0.958 3.052,-1.437 4.871,-1.437 1.785,0 3.402,0.479 4.846,1.437 M 6.089,21.213 C 6.268,21.018 6.357,20.79 6.357,20.531 V -1.826 C 6.357,-2.087 6.26,-2.313 6.064,-2.508 5.87,-2.703 5.643,-2.801 5.383,-2.801 c -0.292,0 -0.529,0.098 -0.706,0.293 -0.179,0.195 -0.268,0.421 -0.268,0.682 V 2.558 C 3.597,0.901 2.347,-0.486 0.658,-1.606 -1.03,-2.728 -2.897,-3.287 -4.943,-3.287 c -2.144,0 -4.076,0.559 -5.796,1.681 -1.722,1.12 -3.07,2.662 -4.043,4.626 -0.974,1.964 -1.461,4.165 -1.461,6.6 0,2.402 0.494,4.57 1.485,6.503 0.99,1.932 2.346,3.441 4.068,4.529 1.72,1.088 3.635,1.632 5.747,1.632 2.11,0 4.009,-0.552 5.699,-1.656 1.687,-1.104 2.905,-2.581 3.653,-4.432 v 4.335 c 0,0.259 0.089,0.487 0.268,0.682 0.177,0.194 0.414,0.292 0.706,0.292 0.292,0 0.527,-0.098 0.706,-0.292"
             style="fill:#ececec;fill-opacity:1;fill-rule:nonzero;stroke:none"
             id="path147" /></g><g
           id="g149"
           transform="translate(1178.0469,707.0371)"
           style="fill:#ececec"><path
             d="m 0,0 c 1.51,0.926 2.695,2.217 3.556,3.873 0.86,1.656 1.291,3.556 1.291,5.698 0,2.144 -0.431,4.043 -1.291,5.7 C 2.695,16.927 1.51,18.209 0,19.118 c -1.51,0.909 -3.207,1.364 -5.09,1.364 -1.884,0 -3.58,-0.471 -5.09,-1.412 -1.509,-0.943 -2.696,-2.241 -3.555,-3.897 -0.861,-1.656 -1.291,-3.524 -1.291,-5.602 0,-2.078 0.43,-3.944 1.291,-5.601 0.859,-1.657 2.046,-2.963 3.555,-3.921 1.51,-0.958 3.206,-1.437 5.09,-1.437 1.883,0 3.58,0.463 5.09,1.388 M 6.332,21.262 C 6.511,21.066 6.6,20.839 6.6,20.58 V -0.364 c 0,-2.468 -0.503,-4.612 -1.51,-6.43 -1.006,-1.818 -2.419,-3.223 -4.237,-4.213 -1.819,-0.99 -3.897,-1.486 -6.235,-1.486 -1.3,0 -2.614,0.17 -3.945,0.512 -1.332,0.34 -2.428,0.778 -3.288,1.314 -0.861,0.536 -1.291,1.08 -1.291,1.633 0,0.26 0.073,0.47 0.219,0.632 0.147,0.164 0.349,0.244 0.609,0.244 0.195,0 0.487,-0.162 0.877,-0.487 0.454,-0.455 0.957,-0.795 1.51,-1.023 1.59,-0.648 3.393,-0.975 5.407,-0.975 3.052,0 5.471,0.943 7.257,2.827 1.785,1.882 2.679,4.367 2.679,7.452 v 3.36 C 3.775,0.918 2.419,-0.641 0.585,-1.681 -1.25,-2.72 -3.174,-3.238 -5.187,-3.238 c -2.209,0 -4.213,0.559 -6.015,1.68 -1.803,1.121 -3.215,2.655 -4.238,4.603 -1.023,1.948 -1.535,4.123 -1.535,6.526 0,2.404 0.512,4.579 1.535,6.528 1.023,1.948 2.435,3.474 4.238,4.578 1.802,1.104 3.806,1.656 6.015,1.656 2.175,0 4.165,-0.577 5.966,-1.729 1.803,-1.153 3.093,-2.542 3.873,-4.165 v 4.141 c 0,0.259 0.089,0.486 0.268,0.682 0.178,0.194 0.413,0.292 0.706,0.292 0.292,0 0.527,-0.098 0.706,-0.292"
             style="fill:#ececec;fill-opacity:1;fill-rule:nonzero;stroke:none"
             id="path151" /></g><g
           id="g153"
           transform="translate(1233.501,704.5781)"
           style="fill:#ececec"><path
             d="m 0,0 c -0.195,-0.195 -0.423,-0.293 -0.682,-0.293 -0.293,0 -0.528,0.098 -0.707,0.293 -0.178,0.194 -0.267,0.421 -0.267,0.682 v 23.135 c 0,0.261 0.096,0.489 0.292,0.683 0.194,0.195 0.422,0.292 0.682,0.292 0.292,0 0.528,-0.097 0.705,-0.292 0.179,-0.194 0.269,-0.422 0.269,-0.683 V 0.682 C 0.292,0.421 0.194,0.194 0,0 m -1.924,28.543 c -0.309,0.292 -0.463,0.665 -0.463,1.12 v 0.39 c 0,0.454 0.162,0.828 0.487,1.12 0.325,0.292 0.747,0.438 1.266,0.438 0.455,0 0.836,-0.146 1.146,-0.438 0.307,-0.292 0.463,-0.666 0.463,-1.12 v -0.39 c 0,-0.455 -0.156,-0.828 -0.463,-1.12 -0.31,-0.292 -0.707,-0.439 -1.194,-0.439 -0.52,0 -0.934,0.147 -1.242,0.439"
             style="fill:#ececec;fill-opacity:1;fill-rule:nonzero;stroke:none"
             id="path155" /></g><g
           id="g157"
           transform="translate(1298.5742,726.8125)"
           style="fill:#ececec"><path
             d="m 0,0 c 1.462,-1.704 2.192,-3.921 2.192,-6.648 v -14.905 c 0,-0.26 -0.098,-0.487 -0.293,-0.681 -0.194,-0.196 -0.421,-0.293 -0.681,-0.293 -0.292,0 -0.529,0.097 -0.707,0.293 -0.179,0.194 -0.268,0.421 -0.268,0.681 v 14.71 c 0,2.208 -0.576,4.019 -1.728,5.431 -1.154,1.412 -2.899,2.119 -5.237,2.119 -1.429,0 -2.834,-0.342 -4.213,-1.023 -1.38,-0.682 -2.508,-1.607 -3.385,-2.777 -0.877,-1.168 -1.316,-2.419 -1.316,-3.75 v -14.71 c 0,-0.26 -0.097,-0.487 -0.292,-0.681 -0.194,-0.196 -0.422,-0.293 -0.681,-0.293 -0.293,0 -0.529,0.097 -0.707,0.293 -0.178,0.194 -0.267,0.421 -0.267,0.681 V 0.805 c 0,0.258 0.097,0.486 0.291,0.681 0.195,0.195 0.423,0.292 0.683,0.292 0.292,0 0.527,-0.097 0.706,-0.292 0.177,-0.195 0.267,-0.423 0.267,-0.681 v -3.264 c 0.942,1.461 2.266,2.662 3.971,3.605 1.704,0.941 3.416,1.412 5.138,1.412 C -3.638,2.558 -1.462,1.706 0,0"
             style="fill:#ececec;fill-opacity:1;fill-rule:nonzero;stroke:none"
             id="path159" /></g><g
           id="g161"
           transform="translate(1363.2344,707.0371)"
           style="fill:#ececec"><path
             d="m 0,0 c 1.51,0.926 2.693,2.217 3.556,3.873 0.86,1.656 1.29,3.556 1.29,5.698 0,2.144 -0.43,4.043 -1.29,5.7 C 2.693,16.927 1.51,18.209 0,19.118 c -1.51,0.909 -3.207,1.364 -5.091,1.364 -1.884,0 -3.58,-0.471 -5.09,-1.412 -1.509,-0.943 -2.695,-2.241 -3.555,-3.897 -0.861,-1.656 -1.29,-3.524 -1.29,-5.602 0,-2.078 0.429,-3.944 1.29,-5.601 0.86,-1.657 2.046,-2.963 3.555,-3.921 1.51,-0.958 3.206,-1.437 5.09,-1.437 1.884,0 3.581,0.463 5.091,1.388 M 6.332,21.262 C 6.51,21.066 6.6,20.839 6.6,20.58 V -0.364 c 0,-2.468 -0.505,-4.612 -1.51,-6.43 -1.008,-1.818 -2.419,-3.223 -4.237,-4.213 -1.82,-0.99 -3.898,-1.486 -6.236,-1.486 -1.299,0 -2.614,0.17 -3.945,0.512 -1.332,0.34 -2.428,0.778 -3.288,1.314 -0.861,0.536 -1.29,1.08 -1.29,1.633 0,0.26 0.072,0.47 0.218,0.632 0.146,0.164 0.349,0.244 0.609,0.244 0.195,0 0.488,-0.162 0.877,-0.487 0.455,-0.455 0.957,-0.795 1.511,-1.023 1.59,-0.648 3.392,-0.975 5.406,-0.975 3.052,0 5.472,0.943 7.258,2.827 1.785,1.882 2.677,4.367 2.677,7.452 v 3.36 C 3.774,0.918 2.418,-0.641 0.584,-1.681 -1.251,-2.72 -3.175,-3.238 -5.187,-3.238 c -2.209,0 -4.214,0.559 -6.016,1.68 -1.803,1.121 -3.215,2.655 -4.238,4.603 -1.023,1.948 -1.535,4.123 -1.535,6.526 0,2.404 0.512,4.579 1.535,6.528 1.023,1.948 2.435,3.474 4.238,4.578 1.802,1.104 3.807,1.656 6.016,1.656 2.174,0 4.164,-0.577 5.966,-1.729 1.802,-1.153 3.093,-2.542 3.871,-4.165 v 4.141 c 0,0.259 0.089,0.486 0.269,0.682 0.179,0.194 0.414,0.292 0.706,0.292 0.293,0 0.527,-0.098 0.707,-0.292"
             style="fill:#ececec;fill-opacity:1;fill-rule:nonzero;stroke:none"
             id="path163" /></g><g
           id="g165"
           transform="translate(628,855.7295)"><path
             d="m 0,0 h 63.508 c 13.803,0.021 33.901,-6.59 46.651,-16.029 16.737,-12.374 26.918,-28.749 28.457,-53.339 2.651,-42.361 -22.376,-69.011 -53.49,-77.415 -1.57,11.237 -8.223,57.515 -11.307,68.685 -1.542,5.605 -6.651,7.769 -10.901,7.769 -5.378,0 -9.91,-3.109 -12.279,-10.669 -4.551,-14.405 -8.952,-29.603 -13.874,-43.847 -4.655,15.152 -8.679,30.683 -13.493,45.84 -1.88,5.904 -7.372,9.121 -11.547,9.121 C 6.723,-69.884 1.374,-73.08 0,-80.013 Z"
             style="fill:#443a70;fill-opacity:1;fill-rule:nonzero;stroke:none"
             id="path167" /></g><g
           id="g169"
           transform="translate(641.5894,756.46)"><path
             d="M 0,0 15.323,-51.405 H -7.927 Z"
             style="fill:#443a70;fill-opacity:1;fill-rule:nonzero;stroke:none"
             id="path171" /></g><g
           id="g173"
           transform="translate(688.5469,756.46)"><path
             d="m 0,0 7.877,-51.361 c -4.122,-0.148 -12.076,-0.148 -23.052,0.047 z"
             style="fill:#443a70;fill-opacity:1;fill-rule:nonzero;stroke:none"
             id="path175" /></g></g></g></g></svg>
